<svg width="500" height="500" viewBox="0 0 500 500" fill="none" xmlns="http://www.w3.org/2000/svg">
  <g clip-path="url(#clip0_2027_26)">
    <path
      d="M382.812 0C447.533 0 500 52.4666 500 117.188V382.812C500 447.533 447.533 500 382.812 500H117.188C52.4666 500 0 447.533 0 382.812V117.188C0 52.4666 52.4666 0 117.188 0H382.812ZM250.254 74.2188C216.023 74.2188 188.855 91.6074 174.727 123.666L91.0488 313.846C87.2461 323.084 83.9844 335.037 83.9844 345.361C83.9844 392.635 117.131 425.781 164.402 425.781C179.895 425.781 192.758 421.711 205.838 417.572C219.363 413.293 233.129 408.936 250.254 408.936C267.58 408.936 281.008 413.25 294.271 417.512C307.213 421.672 320.006 425.781 336.105 425.781C383.379 425.781 416.525 392.635 416.525 345.361C416.525 335.037 413.266 323.084 409.463 313.846L325.783 123.666C311.654 91.6074 284.484 74.2188 250.254 74.2188ZM331.762 343.73C308.396 332.318 279.055 326.885 250.256 326.885C220.371 326.885 192.117 332.318 167.664 343.73L250.256 156.814L331.762 343.73Z"
      fill="black" />
  </g>
  <defs>
    <clipPath id="clip0_2027_26">
      <rect width="500" height="500" fill="white" />
    </clipPath>
  </defs>
</svg>