<svg width="500" height="500" viewBox="0 0 500 500" fill="none" xmlns="http://www.w3.org/2000/svg">
  <path
    d="M226.851 16.91C242.061 7.93667 256.918 7.61445 272.241 16.4607C329.078 49.2776 385.989 81.9605 442.845 114.744C449.733 118.733 454.868 123.778 458.297 129.797C461.788 135.918 463.515 143.049 463.518 151.12C463.54 216.996 463.54 348.656 463.54 348.875C463.536 356.77 461.88 363.764 458.548 369.793C455.118 375.989 449.91 381.175 442.864 385.253C385.999 418.036 329.085 450.718 272.246 483.537C256.918 492.386 242.061 492.065 226.845 483.087C204.22 469.737 90.9015 404.829 57.1372 385.273C50.0906 381.194 44.8842 376.01 41.4536 369.809C38.1166 363.78 36.4638 356.787 36.4604 348.893C36.4822 282.962 36.4602 217.035 36.4819 151.105C36.4853 135.094 43.2514 122.775 57.1558 114.725C90.9182 95.1697 204.22 30.2568 226.851 16.91ZM250 109.42C171.671 109.42 108.173 172.833 108.173 251.054C108.173 276.716 115.01 300.781 126.958 321.539C151.431 364.058 197.369 392.689 250 392.689C302.729 392.689 348.738 363.943 373.176 321.299L311.54 285.636C299.428 307.085 276.414 321.582 250 321.582C223.749 321.582 200.864 307.267 188.691 286.044C182.576 275.394 179.364 263.33 179.376 251.054C179.377 212.103 210.998 180.527 250 180.527C276.083 180.527 298.847 194.664 311.081 215.67L372.809 180.172C348.274 137.876 302.467 109.42 250 109.42ZM360.318 242.789H344.073V259.011H360.318V275.237H376.563V259.011H392.807V242.789H376.563V226.565H360.318V242.789ZM419.592 242.789H403.348V259.011H419.592V275.237H435.84V259.011H452.086V242.789H435.84V226.565H419.592V242.789Z"
    fill="black" />
</svg>