<svg width="512" height="512" viewBox="0 0 512 512" fill="none" xmlns="http://www.w3.org/2000/svg">
<path d="M279.375 236.293H227.738V188.525H279.375V236.293ZM279.375 72H227.738V120.814H279.375V72ZM340.464 188.445H288.827V236.213H340.464V188.445ZM218.363 130.464H166.726V178.795H218.363V130.464ZM279.375 130.464H227.738V178.795H279.375V130.464ZM495.61 210.881C484.361 203.081 458.425 200.266 438.505 204.126C435.927 184.826 425.459 168.019 406.397 152.9L395.461 145.421L388.196 156.68C373.822 179.036 369.916 215.867 385.305 240.153C378.509 243.933 365.15 249.08 347.495 248.758H7.90892C1.11251 289.61 12.4399 342.686 42.2816 379.115C71.264 414.418 114.699 432.352 171.492 432.352C294.452 432.352 385.461 374.049 428.037 268.139C444.754 268.46 480.845 268.219 499.36 231.79C500.532 229.779 504.516 221.175 506 218.038L495.61 210.881ZM96.3404 188.445H44.7814V236.213H96.4185V188.445H96.3404ZM157.352 188.445H105.715V236.213H157.352V188.445ZM218.363 188.445H166.726V236.213H218.363V188.445ZM157.352 130.464H105.715V178.795H157.352V130.464Z" fill="#2BDB85"/>
</svg>
