<svg width="512" height="512" viewBox="0 0 512 512" fill="none" xmlns="http://www.w3.org/2000/svg">
<path d="M414.398 178.785C409.125 177.027 403.852 175.367 398.578 173.804C399.457 170.191 400.238 166.578 401.02 162.964C413.031 104.761 405.121 57.9839 378.461 42.5542C352.777 27.8081 310.883 43.1401 268.5 80.0542C264.301 83.6675 260.199 87.4761 256.293 91.2847C253.656 88.7456 250.922 86.2065 248.188 83.7651C203.754 44.312 159.223 27.7104 132.563 43.2378C106.977 58.0815 99.3594 102.125 110.102 157.203C111.176 162.671 112.348 168.042 113.715 173.511C107.465 175.269 101.312 177.222 95.5508 179.273C43.4023 197.339 6 225.855 6 255.347C6 285.816 45.8438 316.382 100.043 334.937C104.438 336.402 108.832 337.867 113.324 339.136C111.859 344.996 110.59 350.757 109.418 356.714C99.1641 410.914 107.172 453.882 132.758 468.628C159.125 483.863 203.461 468.238 246.625 430.445C250.043 427.417 253.461 424.292 256.879 420.972C261.176 425.171 265.668 429.175 270.16 433.082C311.957 469.019 353.266 483.57 378.754 468.824C405.121 453.589 413.715 407.398 402.582 351.148C401.703 346.851 400.727 342.457 399.652 337.964C402.777 337.085 405.805 336.109 408.832 335.132C465.18 316.48 506 286.304 506 255.347C506 225.757 467.523 197.046 414.398 178.785ZM282.27 95.8745C318.598 64.2339 352.484 51.8315 367.914 60.7183C384.418 70.1909 390.766 108.472 380.414 158.765C379.73 162.085 379.047 165.308 378.168 168.531C356.488 163.648 334.516 160.132 312.445 158.179C299.75 140.015 285.883 122.632 270.844 106.324C274.652 102.71 278.363 99.2925 282.27 95.8745ZM169.281 306.031C174.262 314.527 179.34 323.023 184.711 331.324C169.477 329.664 154.34 327.222 139.398 323.999C143.695 309.937 149.066 295.386 155.316 280.542C159.809 289.136 164.398 297.632 169.281 306.031ZM139.691 188.55C153.754 185.425 168.695 182.886 184.223 180.933C179.047 189.039 173.969 197.339 169.184 205.738C164.398 214.039 159.711 222.535 155.316 231.128C149.164 216.578 143.988 202.32 139.691 188.55ZM166.449 255.835C172.895 242.359 179.926 229.175 187.348 216.187C194.77 203.199 202.777 190.601 211.176 178.199C225.824 177.125 240.766 176.539 256 176.539C271.234 176.539 286.273 177.125 300.824 178.199C309.125 190.503 317.035 203.101 324.555 215.992C332.074 228.882 339.105 242.066 345.746 255.445C339.203 268.921 332.172 282.203 324.652 295.289C317.23 308.277 309.32 320.875 301.02 333.375C286.469 334.449 271.332 334.937 256 334.937C240.668 334.937 225.824 334.449 211.469 333.57C202.973 321.167 194.965 308.472 187.445 295.484C179.926 282.496 172.992 269.312 166.449 255.835ZM342.816 305.835C347.797 297.242 352.484 288.55 357.074 279.761C363.324 293.921 368.793 308.277 373.578 323.023C358.441 326.441 343.109 329.078 327.68 330.835C332.953 322.632 337.934 314.234 342.816 305.835ZM356.879 231.128C352.289 222.535 347.602 213.941 342.719 205.542C337.934 197.242 332.953 189.039 327.777 180.933C343.5 182.886 358.539 185.523 372.602 188.746C368.109 203.199 362.836 217.261 356.879 231.128ZM256.195 121.265C266.449 132.398 276.117 144.117 285.102 156.226C265.766 155.347 246.332 155.347 226.996 156.226C236.566 143.628 246.43 131.91 256.195 121.265ZM142.914 61.4019C159.32 51.8315 195.746 65.5034 234.125 99.4878C236.566 101.636 239.008 103.98 241.547 106.324C226.41 122.632 212.445 140.015 199.652 158.179C177.582 160.132 155.707 163.55 134.027 168.335C132.758 163.355 131.684 158.277 130.609 153.199C121.43 105.933 127.484 70.2886 142.914 61.4019ZM118.988 318.824C114.887 317.652 110.883 316.382 106.879 315.015C86.0781 308.472 62.4453 298.121 45.3555 284.546C35.4922 277.71 28.8516 267.164 26.9961 255.347C26.9961 237.476 57.8555 214.624 102.387 199.097C107.953 197.144 113.617 195.386 119.281 193.726C125.922 214.917 133.93 235.718 143.207 255.835C133.832 276.246 125.727 297.339 118.988 318.824ZM232.855 414.527C216.742 429.273 198.09 440.992 177.777 448.999C166.938 454.175 154.438 454.664 143.305 450.269C127.777 441.285 121.332 406.812 130.121 360.425C131.195 354.957 132.367 349.488 133.734 344.117C155.609 348.804 177.68 352.027 200.043 353.687C212.934 371.949 227.094 389.429 242.23 405.835C239.105 408.863 235.98 411.792 232.855 414.527ZM256.781 390.796C246.82 380.054 236.859 368.14 227.191 355.347C236.566 355.738 246.234 355.933 256 355.933C266.059 355.933 275.922 355.738 285.688 355.249C276.703 367.652 267.035 379.468 256.781 390.796ZM384.418 420.093C383.539 432.007 377.68 443.14 368.305 450.66C352.777 459.644 319.672 447.925 283.93 417.261C279.828 413.746 275.727 409.937 271.527 406.031C286.469 389.527 300.238 372.046 312.738 353.687C335.102 351.832 357.367 348.414 379.34 343.433C380.316 347.437 381.195 351.441 381.977 355.347C386.762 376.441 387.543 398.414 384.418 420.093ZM402.191 315.113C399.457 315.992 396.723 316.871 393.891 317.652C387.055 296.363 378.656 275.562 368.988 255.347C378.363 235.425 386.273 214.917 392.914 193.921C397.992 195.386 402.875 196.949 407.562 198.511C453.07 214.136 485.004 237.378 485.004 255.152C485.004 274.292 450.922 298.999 402.191 315.113ZM256 300.464C280.707 300.464 300.727 280.445 300.727 255.738C300.727 231.031 280.707 211.011 256 211.011C231.293 211.011 211.273 231.031 211.273 255.738C211.273 280.445 231.293 300.464 256 300.464Z" fill="#2BDB85"/>
</svg>
