<svg width="500" height="500" viewBox="0 0 500 500" fill="none" xmlns="http://www.w3.org/2000/svg">
  <path
    d="M250 125C194.375 125 159.792 152.708 145.833 208.333C166.667 180.625 191.042 170.208 218.75 177.083C234.583 181.042 246.042 192.5 258.542 205.208C278.958 226.042 302.083 250 354.167 250C409.792 250 444.375 222.292 458.333 166.667C437.5 194.375 413.125 204.792 385.417 197.917C369.583 193.958 358.333 182.5 345.625 169.792C325.208 148.958 302.083 125 250 125ZM145.833 250C90.2084 250 55.6251 277.708 41.6667 333.333C62.5001 305.625 86.8751 295.208 114.583 302.083C130.417 306.042 141.667 317.5 154.375 330.208C174.792 351.042 197.917 375 250 375C305.625 375 340.208 347.292 354.167 291.667C333.333 319.375 308.958 329.792 281.25 322.917C265.417 318.958 254.167 307.5 241.458 294.792C221.042 273.958 197.917 250 145.833 250Z"
    fill="black" />
</svg>